#!OML:ASF Y:\EmotionMaleHayes\Project 1\Capture day 1\Session 1\Male1.ASF
:FULLY-SPECIFIED
:DEGREES
126
root -24.9343 16.167 1.37232 -14.9762 79.4926 -27.538
lowerback 12.8365 2.47486 6.08697
upperback 3.87337 4.30142 2.5026
thorax -2.85753 2.19431 -1.44394
lowerneck -30.0728 3.42032 3.60137
upperneck 21.4575 5.1581 -6.71384
head 12.3339 1.65941 -2.18228
rclavicle -1.66979e-014 1.35174e-014
rhumerus -37.62 28.0041 -95.2712
rradius 55.4313
rwrist -20.1109
rhand -19.2484 -40.3538
rfingers 7.12502
rthumb 7.06539 -70.2159
lclavicle -1.66979e-014 1.35174e-014
lhumerus -41.4492 -23.3881 93.3278
lradius 59.1296
lwrist 22.9209
lhand -32.5307 -21.1334
lfingers 7.12502
lthumb -5.76109 8.76824
rfemur 11.2462 -8.13685 18.7344
rtibia 5.43568
rfoot -30.3026 -2.44552
rtoes -7.47844
lfemur -33.8923 19.3462 -12.6385
ltibia 67.9112
lfoot -23.0404 1.00455
ltoes -14.3846
127
root -24.8207 16.1103 1.375 -16.2789 79.2984 -29.0744
lowerback 13.3132 2.59522 6.49356
upperback 3.9194 4.55803 2.5446
thorax -3.02206 2.31869 -1.6876
lowerneck -29.7143 3.32063 3.61236
upperneck 21.2006 5.01739 -6.75544
head 12.1613 1.6037 -2.22393
rclavicle 1.19271e-015 -1.51076e-014
rhumerus -35.7432 27.9385 -94.9953
rradius 57.0147
rwrist -20.3715
rhand -19.1924 -38.82
rfingers 7.12502
rthumb 7.11942 -68.6803
lclavicle 1.19271e-015 -1.51076e-014
lhumerus -42.2407 -22.0055 93.5029
lradius 57.6152
lwrist 23.3596
lhand -32.1443 -20.0503
lfingers 7.12502
lthumb -5.38806 9.86122
rfemur 11.6297 -8.37281 18.8665
rtibia 5.04029
rfoot -30.1329 -2.09923
rtoes -7.67987
lfemur -36.5668 20.2372 -13.0851
ltibia 69.3095
lfoot -22.395 1.62374
ltoes -12.9114
128
root -24.7064 16.0491 1.38004 -18.5398 79.0397 -31.5626
lowerback 13.4059 2.66881 6.95115
upperback 4.27735 4.72846 2.73181
thorax -2.66093 2.42967 -1.76042
lowerneck -29.557 3.23143 3.40078
upperneck 20.7184 4.90764 -6.60097
head 11.9273 1.56817 -2.14475
rclavicle -9.54166e-015 -7.15625e-015
rhumerus -33.321 28.3477 -94.3917
rradius 58.6848
rwrist -20.6992
rhand -19.0942 -37.4242
rfingers 7.12502
rthumb 7.21419 -67.2813
lclavicle -9.54166e-015 -7.15625e-015
lhumerus -42.776 -20.6688 93.7263
lradius 55.8658
lwrist 22.5974
lhand -33.4199 -19.2104
lfingers 7.12502
lthumb -6.61962 10.6661
rfemur 11.993 -8.44469 19.3211
rtibia 5.02734
rfoot -30.4705 -1.87864
rtoes -7.75535
lfemur -39.2793 21.095 -13.3128
ltibia 70.5654
lfoot -22.0618 2.27089
ltoes -12.9343
129
root -24.592 15.9885 1.39 -21.1383 78.7824 -34.3419
lowerback 13.965 2.72478 7.23624
upperback 4.39455 4.91617 3.05007
thorax -2.82998 2.52453 -1.64422
lowerneck -29.4371 3.18923 3.29337
upperneck 20.5482 4.90328 -6.65576
head 11.8395 1.55535 -2.14666
rclavicle 3.18055e-015 -1.19271e-014
rhumerus -31.2344 28.8692 -93.8449
rradius 60.4952
rwrist -20.7774
rhand -19.1788 -36.4384
rfingers 7.12502
rthumb 7.13259 -66.2982
lclavicle 3.18055e-015 -1.19271e-014
lhumerus -43.7263 -18.9349 93.9238
lradius 54.6186
lwrist 24.3552
lhand -32.5812 -18.6276
lfingers 7.12502
lthumb -5.80985 11.2728
rfemur 12.454 -8.42027 19.9103
rtibia 4.80133
rfoot -30.7492 -1.80842
rtoes -7.75391
lfemur -42.0351 21.9279 -13.4695
ltibia 71.8334
lfoot -21.9437 2.62258
ltoes -11.9338
130
root -24.4748 15.9257 1.40152 -23.4948 78.5652 -36.8901
lowerback 13.8809 2.7223 7.71372
upperback 4.91464 4.96258 3.15797
thorax -2.19876 2.5935 -1.77194
lowerneck -29.5366 3.22704 3.41682
upperneck 20.1619 4.899 -6.75849
head 11.7147 1.55289 -2.20164
rclavicle 8.90555e-014 3.81667e-014
rhumerus -28.0633 29.3604 -93.1254
rradius 62.1264
rwrist -20.6204
rhand -19.0645 -35.8233
rfingers 7.12502
rthumb 7.24287 -65.6793
lclavicle 8.90555e-014 3.81667e-014
lhumerus -44.1649 -17.7924 93.8099
lradius 53.3087
lwrist 25.9758
lhand -32.6552 -19.1733
lfingers 7.12502
lthumb -5.88132 10.7251
rfemur 12.9014 -8.6841 20.3496
rtibia 4.55652
rfoot -30.9424 -1.74496
rtoes -9.49546
lfemur -44.8204 22.6111 -13.6863
ltibia 73.0362
lfoot -21.8196 2.74469
ltoes -9.48334
131
root -24.3517 15.8591 1.40846 -25.1694 78.3748 -38.8504
lowerback 14.3906 2.72196 8.26223
upperback 4.87407 5.0899 3.04131
thorax -2.44353 2.65011 -2.24795
lowerneck -29.1869 3.20991 3.67037
upperneck 19.9976 4.75191 -6.7263
head 11.5853 1.52064 -2.25651
rclavicle 3.89618e-014 4.21423e-014
rhumerus -25.7525 29.424 -92.9915
rradius 63.8639
rwrist -20.1667
rhand -18.6427 -35.9327
rfingers 7.12502
rthumb 7.65001 -65.7743
lclavicle 3.89618e-014 4.21423e-014
lhumerus -45.7153 -17.0807 93.6753
lradius 52.5556
lwrist 27.7261
lhand -32.8104 -18.3785
lfingers 7.12502
lthumb -6.03119 11.5157
rfemur 13.212 -9.33303 20.4742
rtibia 4.51316
rfoot -31.1632 -1.29312
rtoes -11.4927
lfemur -47.5471 23.1276 -14.0693
ltibia 73.8403
lfoot -21.4722 2.94279
ltoes -7.98635
